<?xml version="1.0" encoding="UTF-8" standalone="no"?>
<svg
   xmlns:dc="http://purl.org/dc/elements/1.1/"
   xmlns:cc="http://creativecommons.org/ns#"
   xmlns:rdf="http://www.w3.org/1999/02/22-rdf-syntax-ns#"
   xmlns:svg="http://www.w3.org/2000/svg"
   xmlns="http://www.w3.org/2000/svg"
   viewBox="0 0 1587.4 1122.52"
   height="1122.52"
   width="1587.4"
   xml:space="preserve"
   id="svg2"
   version="1.1"><metadata
     id="metadata8"><rdf:RDF><cc:Work
         rdf:about=""><dc:format>image/svg+xml</dc:format><dc:type
           rdf:resource="http://purl.org/dc/dcmitype/StillImage" /></cc:Work></rdf:RDF></metadata><defs
     id="defs6"><clipPath
       id="clipPath18"
       clipPathUnits="userSpaceOnUse"><path
         id="path16"
         d="M 165.365,506.677 V 264.429 H 432.15 l -100.594,118.03 c 0,0 -3.788,3.933 -3.788,9.142 v 0 c 0,4.354 3.884,8.442 3.884,8.442 v 0 l 93.896,106.634 z" /></clipPath><linearGradient
       id="linearGradient36"
       spreadMethod="pad"
       gradientTransform="matrix(266.78543,0,0,-266.78543,165.36487,385.55258)"
       gradientUnits="userSpaceOnUse"
       y2="0"
       x2="1"
       y1="0"
       x1="0"><stop
         id="stop24"
         offset="0"
         style="stop-opacity:1;stop-color:#f36518" /><stop
         id="stop26"
         offset="0.241379"
         style="stop-opacity:1;stop-color:#f36518" /><stop
         id="stop28"
         offset="0.54300638"
         style="stop-opacity:1;stop-color:#f6f7f1" /><stop
         id="stop30"
         offset="0.667488"
         style="stop-opacity:1;stop-color:#f6f7f1" /><stop
         id="stop32"
         offset="0.89435799"
         style="stop-opacity:1;stop-color:#f6f7f1" /><stop
         id="stop34"
         offset="1"
         style="stop-opacity:1;stop-color:#f6f7f1" /></linearGradient><clipPath
       id="clipPath46"
       clipPathUnits="userSpaceOnUse"><path
         id="path44"
         d="M 0,841.89 H 1190.551 V 0 H 0 Z" /></clipPath></defs><g
     transform="matrix(1.3333333,0,0,-1.3333333,0,1122.52)"
     id="g10"><g
       id="g12"><g
         clip-path="url(#clipPath18)"
         id="g14"><g
           id="g20"><g
             id="g22"><path
               id="path38"
               style="fill:url(#linearGradient36);stroke:none"
               d="M 165.365,506.677 V 264.429 H 432.15 l -100.594,118.03 c 0,0 -3.788,3.933 -3.788,9.142 v 0 c 0,4.354 3.884,8.442 3.884,8.442 v 0 l 93.896,106.634 z" /></g></g></g></g><g
       id="g40"><g
         clip-path="url(#clipPath46)"
         id="g42"><g
           transform="translate(331.5573,382.4576)"
           id="g48"><path
             id="path50"
             style="fill:#1e1d21;fill-opacity:1;fill-rule:nonzero;stroke:none"
             d="m 0,0 c 0,0 -3.789,3.935 -3.789,9.144 0,4.353 3.883,8.44 3.883,8.44 L 93.99,124.218 H 29.703 L -49.231,34.469 c -6.281,-6.628 -11.535,-15.574 -11.535,-25.426 0,-9.04 4.642,-17.318 10.028,-23.743 -0.012,-0.003 87.917,-103.328 87.917,-103.328 h 63.414 z" /></g><g
           transform="translate(723.7975,366.3062)"
           id="g52"><path
             id="path54"
             style="fill:#1e1d21;fill-opacity:1;fill-rule:nonzero;stroke:none"
             d="M 0,0 -51.964,140.369 H -1.626 L 88.529,-102.016 H 38.214 l -16.129,43.892 h -86.661 l -17.512,47.081 h 73.095 c 0,0 13.329,-0.83 8.993,11.043" /></g><g
           transform="translate(959.6168,345.6783)"
           id="g56"><path
             id="path58"
             style="fill:#1e1d21;fill-opacity:1;fill-rule:nonzero;stroke:none"
             d="m 0,0 c -3.905,33.192 -25.354,52.979 -69.544,64.155 -32.67,8.251 -46.147,13.068 -47.869,27.69 -0.724,6.157 1.328,12.18 5.776,16.962 5.655,6.079 17.171,11.214 28.005,12.487 17.219,2.037 31.378,-0.786 40.356,-3.583 v 43.778 c -13.366,2.746 -28.288,3.178 -44.362,1.283 -24.807,-2.918 -45.236,-12.201 -59.08,-26.844 -13.463,-14.24 -19.613,-32.84 -17.316,-52.372 3.722,-31.647 27.435,-52.014 72.492,-62.267 16.073,-3.782 25.824,-7.098 32.609,-11.087 7.756,-4.56 11.785,-10.228 12.68,-17.838 1.903,-16.179 -12.84,-28.103 -38.477,-31.119 -18.155,-2.148 -38.763,0.772 -55.122,7.795 l -2.509,1.076 19.411,-52.185 c 5.616,-0.873 11.464,-1.453 17.441,-1.693 8.192,-0.336 16.165,-0.053 23.69,0.827 28.436,3.347 51.032,13.526 65.345,29.437 C -3.491,-39.061 2.36,-20.061 0,0" /></g><g
           transform="translate(1114.839,345.6783)"
           id="g60"><path
             id="path62"
             style="fill:#1e1d21;fill-opacity:1;fill-rule:nonzero;stroke:none"
             d="m 0,0 c -3.906,33.192 -25.354,52.979 -69.545,64.155 -32.669,8.251 -46.146,13.068 -47.868,27.69 -0.724,6.157 1.328,12.18 5.776,16.962 5.655,6.079 17.17,11.214 28.005,12.487 17.219,2.037 31.378,-0.786 40.356,-3.583 v 43.778 c -13.367,2.746 -28.288,3.178 -44.362,1.283 -24.807,-2.918 -45.237,-12.201 -59.08,-26.844 -13.464,-14.24 -19.614,-32.84 -17.316,-52.372 3.722,-31.647 27.434,-52.014 72.492,-62.267 16.073,-3.782 25.824,-7.098 32.608,-11.087 7.756,-4.56 11.786,-10.228 12.681,-17.838 1.902,-16.179 -12.841,-28.103 -38.477,-31.119 -18.155,-2.148 -38.763,0.772 -55.122,7.795 l -2.509,1.076 19.41,-52.185 c 5.617,-0.873 11.464,-1.453 17.441,-1.693 8.193,-0.336 16.166,-0.053 23.691,0.827 28.435,3.347 51.032,13.526 65.345,29.437 C -3.491,-39.061 2.359,-20.061 0,0" /></g><g
           transform="translate(667.0397,506.6754)"
           id="g64"><path
             id="path66"
             style="fill:#1e1d21;fill-opacity:1;fill-rule:nonzero;stroke:none"
             d="m 0,0 h -51.35 l -60.61,-146.99 c -1.105,-2.675 -3.658,-4.411 -6.538,-4.489 -2.878,0.078 -5.432,1.814 -6.536,4.489 L -185.645,0 h -51.35 l 0.122,-0.297 h -0.122 l 99.704,-241.949 h 0.082 37.423 0.082 L 0,-0.297 h -0.122 z" /></g></g></g></g></svg>
